<?xml version="1.0" encoding="UTF-8" standalone="no"?>
<svg
   xmlns:dc="http://purl.org/dc/elements/1.1/"
   xmlns:cc="http://creativecommons.org/ns#"
   xmlns:rdf="http://www.w3.org/1999/02/22-rdf-syntax-ns#"
   xmlns:svg="http://www.w3.org/2000/svg"
   xmlns="http://www.w3.org/2000/svg"
   xmlns:sodipodi="http://sodipodi.sourceforge.net/DTD/sodipodi-0.dtd"
   xmlns:inkscape="http://www.inkscape.org/namespaces/inkscape"
   inkscape:version="1.0 (4035a4f, 2020-05-01)"
   sodipodi:docname="KYC-icon.svg"
   xml:space="preserve"
   viewBox="0 0 1000 400"
   y="0px"
   x="0px"
   id="Layer_1"
   version="1.1"
   width="1000"
   height="400"><metadata
   id="metadata120"><rdf:RDF><cc:Work
       rdf:about=""><dc:format>image/svg+xml</dc:format><dc:type
         rdf:resource="http://purl.org/dc/dcmitype/StillImage" /><dc:title /><cc:license
         rdf:resource="http://creativecommons.org/licenses/by/4.0/" /></cc:Work><cc:License
       rdf:about="http://creativecommons.org/licenses/by/4.0/"><cc:permits
         rdf:resource="http://creativecommons.org/ns#Reproduction" /><cc:permits
         rdf:resource="http://creativecommons.org/ns#Distribution" /><cc:requires
         rdf:resource="http://creativecommons.org/ns#Notice" /><cc:requires
         rdf:resource="http://creativecommons.org/ns#Attribution" /><cc:permits
         rdf:resource="http://creativecommons.org/ns#DerivativeWorks" /></cc:License></rdf:RDF></metadata><defs
   id="defs118"><rect
     x="450.83642"
     y="176.29723"
     width="59.214336"
     height="71.326359"
     id="rect45" /></defs><sodipodi:namedview
   inkscape:current-layer="Layer_1"
   inkscape:window-maximized="0"
   inkscape:window-y="150"
   inkscape:window-x="575"
   inkscape:cy="103.81595"
   inkscape:cx="488.80101"
   inkscape:zoom="0.7430633"
   scale-x="1"
   showgrid="false"
   id="namedview116"
   inkscape:window-height="788"
   inkscape:window-width="1047"
   inkscape:pageshadow="2"
   inkscape:pageopacity="0"
   guidetolerance="10"
   gridtolerance="10"
   objecttolerance="10"
   inkscape:document-rotation="0" />
<style
   id="style66"
   type="text/css">
	.line{fill:none;stroke:#DDDDDD;stroke-width:5;stroke-linecap:round;stroke-linejoin:round;stroke-miterlimit:10;}
	.box{fill:none;stroke:#DDDDDD;stroke-width:5;stroke-linecap:round;stroke-linejoin:round;stroke-miterlimit:10;}
	.headcomputer{fill:#DDDDDD;}
	.body{fill:#A4D9E9;}
	.head{fill:#bbbbbb;}
	.arm{fill:#7DCCE1;}
	.computer{fill:#bbbbbb;}
	.star{fill:none;stroke:#C6C6C5;stroke-width:5;stroke-linecap:round;stroke-linejoin:round;stroke-miterlimit:10;}
	.valid{fill:none;stroke:#5bd11f;stroke-width:5;stroke-linecap:round;stroke-linejoin:round;stroke-miterlimit:10;}

</style>
<g
   id="computer_human_decision">
	<polyline
   id="polyline68"
   points="244.9,312.3 244.9,349.7 155.1,349.7 155.1,267.4 222.5,267.4  "
   class="valid" />
	<polyline
   id="polyline70"
   points="177.5,304.8 200,327.2 252.4,267.4  "
   class="valid" />
	<rect
   id="rect72"
   height="82.300003"
   width="89.800003"
   class="box"
   y="267.39999"
   x="282.29999" />
	<polyline
   id="polyline74"
   points="117.7,312.3 117.7,349.7 27.8,349.7 27.8,267.4 95.2,267.4  "
   class="valid" />
	<polyline
   id="polyline76"
   points="50.3,304.8 72.8,327.2 125.1,267.4  "
   class="valid" />
	<path
   id="path78"
   d="M 110.2,125.1 C 92.5,125.1 80.3,110.7 80.3,93 V 82.4 c 0,-17.7 12.3,-32.1 29.9,-32.1 17.7,0 29.9,14.4 29.9,32.1 v 10.7 c 0,17.7 -12.2,32 -29.9,32 z"
   class="headcomputer" />
	<path
   id="path80"
   d="M 199.9,207.5 H 155 l -52.3,-59.9 h -15 c -16.5,0 -27.4,11.7 -29.9,29.9 -2.6,18.2 -7.5,59.9 -7.5,59.9 h 82.3 c 0,0 29.7,0 44.8,0 25.8,0 22.5,-29.9 22.5,-29.9 z"
   class="body" />
	<path
   id="path82"
   d="m 192.5,140.1 -35.2,52.8 2.8,3.2 h 39.8 c 5.8,0 10.6,4.3 11.3,10.1 0.1,0.8 0.4,4.2 0.1,8.7 H 245 L 289.9,140 h -97.4 z"
   class="headcomputer" />
	<path
   id="path84"
   d="m 125.3,54.3 c 3.1,5.1 4.9,11.3 4.9,18 V 83 c 0,17.7 -12.3,32.1 -29.9,32.1 -5.7,0 -10.8,-1.5 -15.1,-4 5.2,8.5 14.1,14 25.1,14 17.7,0 29.9,-14.4 29.9,-32.1 V 82.4 C 140.1,70.3 134.4,59.8 125.3,54.3 Z"
   class="head" />
	<g
   id="g88">
		<path
   id="path86"
   d="m 199.9,207.5 h -10.4 c -1.4,8.7 -6.3,19.9 -22.1,19.9 -15,0 -44.8,0 -44.8,0 l 10,10 c 0,0 29.7,0 44.8,0 25.8,0 22.5,-29.9 22.5,-29.9 z"
   class="arm" />
	</g>
	<g
   id="g92">
		<path
   id="path90"
   d="M 273.8,140.1 234.9,205 h -24 c 0.1,0.4 0.2,0.8 0.2,1.3 0.1,0.8 0.4,4.2 0.1,8.7 h 33.7 l 44.9,-74.9 z"
   class="computer" />
	</g>
	<path
   id="path94"
   d="M 110.2,125.1 C 92.5,125.1 80.3,110.7 80.3,93 V 82.4 c 0,-17.7 12.3,-32.1 29.9,-32.1 17.7,0 29.9,14.4 29.9,32.1 v 10.7 c 0,17.7 -12.2,32 -29.9,32 z"
   class="line" />
	<path
   id="path96"
   d="m 50.3,237.4 c 0,0 4.9,-41.6 7.5,-59.9 2.6,-18.2 13.5,-29.9 29.9,-29.9 h 15 l 52.3,59.9 h 44.9 c 0,0 3.3,29.9 -22.5,29.9 -15,0 -44.8,0 -44.8,0 L 95.2,192.5"
   class="line" />
	<polyline
   id="polyline98"
   points="162.6,185 192.5,140.1 289.8,140.1 244.9,215 215,215  "
   class="line" />
	<line
   id="line100"
   y2="237.39999"
   x2="357.20001"
   y1="237.39999"
   x1="102.7"
   class="line" />
	<g
   id="g106">
		<line
   id="line102"
   y2="210.7"
   x2="327.20001"
   y1="174.3"
   x1="327.20001"
   class="star" />
		<line
   id="line104"
   y2="192.5"
   x2="309.10001"
   y1="192.5"
   x1="345.39999"
   class="star" />
	</g>
	<g
   id="g112">
		<line
   id="line108"
   y2="105.9"
   x2="226.2"
   y1="69.599998"
   x1="226.2"
   class="star" />
		<line
   id="line110"
   y2="87.699997"
   x2="208"
   y1="87.699997"
   x1="244.39999"
   class="star" />
	</g>
</g>
<text
   xml:space="preserve"
   style="font-size:318.846px;line-height:1.25;font-family:sans-serif;word-spacing:0px;stroke-width:7.97114"
   class="line headcomputer"
   x="406.21582"
   y="281.39139"
   id="text41"
   transform="scale(0.95285311,1.0494797)"><tspan
     sodipodi:role="line"
     id="tspan39"
     x="406.21582"
     y="281.39139"
     style="font-style:normal;font-variant:normal;font-weight:normal;font-stretch:normal;font-family:Copperplate;-inkscape-font-specification:Copperplate;stroke-width:7.97114">KYC</tspan></text><text
   xml:space="preserve"
   id="text43"
   style="line-height:1.25;font-family:sans-serif;font-size:40px;word-spacing:0px;white-space:pre;shape-inside:url(#rect45);" /></svg>
